<svg width="234" height="39" viewBox="0 0 234 39" fill="none" xmlns="http://www.w3.org/2000/svg">
<path d="M3.296 38C2.592 38 2 37.76 1.52 37.28C1.04 36.8 0.8 36.208 0.8 35.504V3.008C0.8 2.272 1.04 1.68 1.52 1.232C2 0.751999 2.592 0.511999 3.296 0.511999C4.256 0.511999 4.992 0.959999 5.504 1.856L20.528 31.952H18.992L33.632 1.856C34.144 0.959999 34.88 0.511999 35.84 0.511999C36.544 0.511999 37.136 0.751999 37.616 1.232C38.096 1.68 38.336 2.272 38.336 3.008V35.504C38.336 36.208 38.08 36.8 37.568 37.28C37.088 37.76 36.512 38 35.84 38C35.136 38 34.544 37.76 34.064 37.28C33.584 36.8 33.344 36.208 33.344 35.504V9.92L34.304 9.68L21.728 35.312C21.184 36.144 20.464 36.56 19.568 36.56C18.512 36.56 17.744 36.064 17.264 35.072L4.832 10.16L5.792 9.92V35.504C5.792 36.208 5.552 36.8 5.072 37.28C4.592 37.76 4 38 3.296 38ZM59.8123 38.192C57.1562 38.192 54.7883 37.632 52.7083 36.512C50.6603 35.36 49.0443 33.792 47.8603 31.808C46.7083 29.792 46.1323 27.488 46.1323 24.896C46.1323 22.272 46.6763 19.968 47.7643 17.984C48.8843 15.968 50.4203 14.4 52.3723 13.28C54.3243 12.128 56.5643 11.552 59.0923 11.552C61.5883 11.552 63.7323 12.112 65.5243 13.232C67.3163 14.32 68.6763 15.84 69.6042 17.792C70.5643 19.712 71.0443 21.936 71.0443 24.464C71.0443 25.072 70.8363 25.584 70.4203 26C70.0043 26.384 69.4763 26.576 68.8363 26.576H49.4922V22.736H68.6923L66.7243 24.08C66.6923 22.48 66.3723 21.056 65.7643 19.808C65.1563 18.528 64.2923 17.52 63.1723 16.784C62.0523 16.048 60.6923 15.68 59.0923 15.68C57.2683 15.68 55.7003 16.08 54.3883 16.88C53.1083 17.68 52.1323 18.784 51.4603 20.192C50.7883 21.568 50.4523 23.136 50.4523 24.896C50.4523 26.656 50.8523 28.224 51.6523 29.6C52.4523 30.976 53.5563 32.064 54.9643 32.864C56.3723 33.664 57.9883 34.064 59.8123 34.064C60.8043 34.064 61.8123 33.888 62.8363 33.536C63.8923 33.152 64.7403 32.72 65.3803 32.24C65.8603 31.888 66.3723 31.712 66.9163 31.712C67.4923 31.68 67.9883 31.84 68.4043 32.192C68.9483 32.672 69.2363 33.2 69.2683 33.776C69.3003 34.352 69.0443 34.848 68.5002 35.264C67.4123 36.128 66.0523 36.832 64.4203 37.376C62.8203 37.92 61.2843 38.192 59.8123 38.192ZM88.2553 38.192C85.7593 38.192 83.5033 37.616 81.4873 36.464C79.5033 35.28 77.9193 33.68 76.7353 31.664C75.5833 29.648 75.0073 27.376 75.0073 24.848C75.0073 22.32 75.5353 20.064 76.5913 18.08C77.6793 16.064 79.1513 14.48 81.0073 13.328C82.8633 12.144 84.9593 11.552 87.2953 11.552C89.1833 11.552 90.9273 11.952 92.5273 12.752C94.1273 13.52 95.4713 14.576 96.5593 15.92V2.96C96.5593 2.224 96.7833 1.632 97.2313 1.184C97.7113 0.735999 98.3033 0.511999 99.0073 0.511999C99.7433 0.511999 100.335 0.735999 100.783 1.184C101.231 1.632 101.455 2.224 101.455 2.96V24.848C101.455 27.376 100.863 29.648 99.6793 31.664C98.5273 33.68 96.9593 35.28 94.9753 36.464C92.9913 37.616 90.7513 38.192 88.2553 38.192ZM88.2553 33.872C89.8873 33.872 91.3433 33.488 92.6233 32.72C93.9033 31.92 94.9113 30.832 95.6473 29.456C96.3833 28.08 96.7513 26.544 96.7513 24.848C96.7513 23.12 96.3833 21.584 95.6473 20.24C94.9113 18.896 93.9033 17.84 92.6233 17.072C91.3433 16.272 89.8873 15.872 88.2553 15.872C86.6553 15.872 85.1993 16.272 83.8873 17.072C82.6073 17.84 81.5833 18.896 80.8153 20.24C80.0793 21.584 79.7113 23.12 79.7113 24.848C79.7113 26.544 80.0793 28.08 80.8153 29.456C81.5833 30.832 82.6073 31.92 83.8873 32.72C85.1993 33.488 86.6553 33.872 88.2553 33.872ZM109.093 38C108.197 38 107.509 37.616 107.029 36.848C106.549 36.08 106.501 35.264 106.885 34.4L120.373 2.192C120.853 1.072 121.637 0.511999 122.725 0.511999C123.877 0.511999 124.661 1.072 125.077 2.192L138.613 34.496C138.965 35.392 138.901 36.208 138.421 36.944C137.973 37.648 137.285 38 136.357 38C135.877 38 135.413 37.872 134.965 37.616C134.549 37.328 134.245 36.944 134.053 36.464L122.149 6.896H123.493L111.397 36.464C111.173 36.976 110.837 37.36 110.389 37.616C109.973 37.872 109.541 38 109.093 38ZM111.637 29.744L113.557 25.616H132.373L134.293 29.744H111.637ZM153.858 38.192C151.522 38.192 149.426 37.616 147.57 36.464C145.714 35.28 144.242 33.696 143.154 31.712C142.098 29.696 141.57 27.424 141.57 24.896C141.57 22.368 142.146 20.096 143.298 18.08C144.482 16.064 146.066 14.48 148.05 13.328C150.066 12.144 152.322 11.552 154.818 11.552C157.314 11.552 159.554 12.144 161.538 13.328C163.522 14.48 165.09 16.064 166.242 18.08C167.426 20.096 168.018 22.368 168.018 24.896H166.146C166.146 27.424 165.602 29.696 164.514 31.712C163.458 33.696 162.002 35.28 160.146 36.464C158.29 37.616 156.194 38.192 153.858 38.192ZM154.818 33.872C156.45 33.872 157.906 33.488 159.186 32.72C160.466 31.92 161.474 30.848 162.21 29.504C162.946 28.128 163.314 26.592 163.314 24.896C163.314 23.168 162.946 21.632 162.21 20.288C161.474 18.912 160.466 17.84 159.186 17.072C157.906 16.272 156.45 15.872 154.818 15.872C153.218 15.872 151.762 16.272 150.45 17.072C149.17 17.84 148.146 18.912 147.378 20.288C146.642 21.632 146.274 23.168 146.274 24.896C146.274 26.592 146.642 28.128 147.378 29.504C148.146 30.848 149.17 31.92 150.45 32.72C151.762 33.488 153.218 33.872 154.818 33.872ZM165.57 38.048C164.866 38.048 164.274 37.824 163.794 37.376C163.346 36.896 163.122 36.304 163.122 35.6V28.256L164.034 23.168L168.018 24.896V35.6C168.018 36.304 167.778 36.896 167.298 37.376C166.85 37.824 166.274 38.048 165.57 38.048ZM197.48 38.048C196.776 38.048 196.184 37.824 195.704 37.376C195.256 36.896 195.032 36.304 195.032 35.6V23.792C195.032 21.968 194.696 20.48 194.024 19.328C193.352 18.176 192.44 17.328 191.288 16.784C190.168 16.208 188.872 15.92 187.4 15.92C186.056 15.92 184.84 16.192 183.752 16.736C182.664 17.28 181.8 18.016 181.16 18.944C180.52 19.84 180.2 20.88 180.2 22.064H177.176C177.176 20.048 177.656 18.256 178.616 16.688C179.608 15.088 180.952 13.824 182.648 12.896C184.344 11.968 186.248 11.504 188.36 11.504C190.568 11.504 192.536 11.984 194.264 12.944C196.024 13.872 197.4 15.248 198.392 17.072C199.416 18.896 199.928 21.136 199.928 23.792V35.6C199.928 36.304 199.688 36.896 199.208 37.376C198.76 37.824 198.184 38.048 197.48 38.048ZM177.752 38.048C177.048 38.048 176.456 37.824 175.976 37.376C175.528 36.896 175.304 36.304 175.304 35.6V14.192C175.304 13.456 175.528 12.864 175.976 12.416C176.456 11.968 177.048 11.744 177.752 11.744C178.488 11.744 179.08 11.968 179.528 12.416C179.976 12.864 180.2 13.456 180.2 14.192V35.6C180.2 36.304 179.976 36.896 179.528 37.376C179.08 37.824 178.488 38.048 177.752 38.048ZM218.967 38.192C216.631 38.192 214.535 37.616 212.679 36.464C210.823 35.28 209.351 33.696 208.263 31.712C207.207 29.696 206.679 27.424 206.679 24.896C206.679 22.368 207.255 20.096 208.407 18.08C209.591 16.064 211.175 14.48 213.159 13.328C215.175 12.144 217.431 11.552 219.927 11.552C222.423 11.552 224.663 12.144 226.647 13.328C228.631 14.48 230.199 16.064 231.351 18.08C232.535 20.096 233.127 22.368 233.127 24.896H231.255C231.255 27.424 230.711 29.696 229.623 31.712C228.567 33.696 227.111 35.28 225.255 36.464C223.399 37.616 221.303 38.192 218.967 38.192ZM219.927 33.872C221.559 33.872 223.015 33.488 224.295 32.72C225.575 31.92 226.583 30.848 227.319 29.504C228.055 28.128 228.423 26.592 228.423 24.896C228.423 23.168 228.055 21.632 227.319 20.288C226.583 18.912 225.575 17.84 224.295 17.072C223.015 16.272 221.559 15.872 219.927 15.872C218.327 15.872 216.871 16.272 215.559 17.072C214.279 17.84 213.255 18.912 212.487 20.288C211.751 21.632 211.383 23.168 211.383 24.896C211.383 26.592 211.751 28.128 212.487 29.504C213.255 30.848 214.279 31.92 215.559 32.72C216.871 33.488 218.327 33.872 219.927 33.872ZM230.679 38.048C229.975 38.048 229.383 37.824 228.903 37.376C228.455 36.896 228.231 36.304 228.231 35.6V28.256L229.143 23.168L233.127 24.896V35.6C233.127 36.304 232.887 36.896 232.407 37.376C231.959 37.824 231.383 38.048 230.679 38.048Z" fill="black"/>
</svg>
